Coordinates
version=1
nRows=35
nColumns=38
inDegrees=no

Units are S.I. units (second, meters, Newtons, ...)
If the header above contains a line with 'inDegrees', this indicates whether rotational values are in degrees (yes) or radians (no).

endheader
time	pelvis_tilt	pelvis_list	pelvis_rotation	pelvis_tx	pelvis_ty	pelvis_tz	hip_flexion_r	hip_adduction_r	hip_rotation_r	knee_angle_r	ankle_angle_r	subtalar_angle_r	mtp_angle_r	hip_flexion_l	hip_adduction_l	hip_rotation_l	knee_angle_l	ankle_angle_l	subtalar_angle_l	mtp_angle_l	lumbar_extension	lumbar_bending	lumbar_rotation	arm_flex_r	arm_add_r	arm_rot_r	elbow_flex_r	pro_sup_r	wrist_flex_r	wrist_dev_r	arm_flex_l	arm_add_l	arm_rot_l	elbow_flex_l	pro_sup_l	wrist_flex_l	wrist_dev_l
20	-2.23164	1.51772	0.576279	0.961252	-0.357448	0.908076	0.0660412	-0.190193	-0.0743042	1.12063	-0.513315	0	0	0.124782	-0.132426	-0.256792	0	-0.45185	0	0	-0.0612921	0.0591384	-0.160053	-0.805257	0.262503	-0.733977	1.73297	1.5708	0	0	0.0431666	-0.276938	0.470932	0.585543	1.5708	0	0
20.01	-1.15811	1.50647	-0.475286	0.967903	-0.363884	0.915475	0.0177575	-0.21217	-0.316149	0.966691	-0.698132	0	0	0.0531711	-0.136377	-0.255067	0	-0.457793	0	0	-0.1283	0.0834933	-0.178237	-0.76582	0.309235	-0.798658	1.72834	1.5708	0	0	0.0661385	-0.117365	0.0327399	0.462483	1.5708	0	0
20.02	-2.49456	1.5044	0.828155	0.965205	-0.367933	0.90976	0.133887	-0.186298	-0.0378035	1.18714	-0.456816	0	0	0.132514	-0.124526	-0.260005	0	-0.47382	0	0	-0.0498254	0.0610329	-0.125396	-0.769108	0.271596	-0.793177	1.6546	1.5708	0	0	0.134432	-0.227333	0.569585	0.418164	1.5708	0	0
20.03	-2.50304	1.49716	0.833949	0.967341	-0.373165	0.910375	0.160086	-0.177887	-0.0290907	1.20916	-0.441177	0	0	0.130568	-0.128353	-0.256472	0	-0.447733	0	0	-0.0464952	0.0654374	-0.131319	-0.770281	0.272638	-0.799695	1.6416	1.5708	0	0	0.130363	-0.223423	0.547357	0.413099	1.5708	0	0
20.04	-2.47319	1.49638	0.801308	0.969597	-0.378268	0.911855	0.177795	-0.172457	-0.0222808	1.2243	-0.432631	0	0	0.123253	-0.125484	-0.261281	0	-0.457548	0	0	-0.0512788	0.0673014	-0.135009	-0.770279	0.275174	-0.806421	1.62838	1.5708	0	0	0.130321	-0.219173	0.528761	0.405675	1.5708	0	0
20.05	-2.4072	1.4929	0.732321	0.97174	-0.38325	0.913172	0.194879	-0.163491	-0.0169417	1.21853	-0.434632	0	0	0.114018	-0.129432	-0.260485	0	-0.425687	0	0	-0.0561043	0.073566	-0.136844	-0.770872	0.278321	-0.814472	1.61689	1.5708	0	0	0.131998	-0.214183	0.514738	0.397239	1.5708	0	0
20.06	-2.34471	1.49291	0.666484	0.973471	-0.388002	0.914561	0.205937	-0.154108	-0.010224	1.23945	-0.421621	0	0	0.104084	-0.12924	-0.264398	0	-0.404639	0	0	-0.063476	0.0755881	-0.136229	-0.771605	0.284115	-0.823258	1.60504	1.5708	0	0	0.135754	-0.211578	0.507776	0.389775	1.5708	0	0
20.07	-2.17429	1.48027	0.479743	0.972894	-0.394477	0.91513	0.213304	-0.121574	0.00766225	1.23751	-0.413002	0	0	0.144577	-0.16511	-0.342744	0.143365	-0.325462	0	0	-0.0668111	0.0957404	-0.11112	-0.783746	0.296119	-0.840134	1.60118	1.5708	0	0	0.142778	-0.202364	0.515521	0.374951	1.5708	0	0
20.08	-2.27847	1.4884	0.592434	0.976643	-0.397688	0.917085	0.233966	-0.136836	0.00102999	1.23792	-0.413998	0	0	0.0863266	-0.129835	-0.27109	0	-0.422349	0	0	-0.071301	0.0811274	-0.135065	-0.773411	0.293677	-0.839459	1.57866	1.5708	0	0	0.141449	-0.203939	0.489527	0.372016	1.5708	0	0
20.09	-1.89047	1.50042	0.2198	0.982102	-0.403856	0.920746	0.23856	-0.182928	-0.212014	1.20153	-0.589547	0	0	0.0480814	-0.129766	-0.281551	0	-0.445865	0	0	-0.108863	0.0870638	-0.150488	-0.774554	0.297386	-0.846914	1.57384	1.5708	0	0	0.14972	-0.197827	0.485106	0.366165	1.5708	0	0
20.1	-2.21825	1.4838	0.527226	0.980307	-0.406938	0.918814	0.258988	-0.122043	0.00631237	1.22864	-0.392057	0	0	0.0723323	-0.137901	-0.280153	0	-0.434119	0	0	-0.0791338	0.0885312	-0.134063	-0.777765	0.303521	-0.851767	1.55674	1.5708	0	0	0.149065	-0.196145	0.480352	0.356616	1.5708	0	0
20.11	-2.0472	1.47055	0.339741	0.979323	-0.412673	0.919522	0.259626	-0.087885	0.0222671	1.2167	-0.377528	0	0	0.117782	-0.181295	-0.384023	0.168816	-0.326038	0	0	-0.0891515	0.107914	-0.112317	-0.786724	0.311714	-0.858766	1.55136	1.5708	0	0	0.153188	-0.191063	0.485824	0.350742	1.5708	0	0
20.12	-2.28928	1.47106	0.587364	0.982399	-0.417228	0.918388	0.298897	-0.105744	0.0138125	1.2179	-0.365768	0	0	0.0640806	-0.13692	-0.283768	0	-0.435496	0	0	-0.0638461	0.0970725	-0.109601	-0.790152	0.325422	-0.873168	1.53032	1.5708	0	0	0.164178	-0.181082	0.500838	0.326668	1.5708	0	0
20.13	-2.26297	1.46759	0.556111	0.983694	-0.421669	0.919253	0.310096	-0.0971541	0.0159188	1.20563	-0.356572	0	0	0.0545653	-0.13754	-0.285448	0	-0.43426	0	0	-0.067825	0.10159	-0.109268	-0.789899	0.325053	-0.870695	1.51424	1.56224	0	0	0.164955	-0.178524	0.49467	0.323303	1.5708	0	0
20.14	-2.22743	1.46756	0.514728	0.984779	-0.425826	0.920098	0.31827	-0.0914424	0.0185154	1.19303	-0.345887	0	0	0.0426161	-0.136018	-0.289292	0	-0.431737	0	0	-0.0750768	0.10316	-0.103173	-0.792298	0.325876	-0.864581	1.50077	1.49123	0	0	0.169292	-0.175917	0.494766	0.319836	1.5708	0	0
20.15	-2.22055	1.46558	0.503033	0.985783	-0.430132	0.920629	0.328691	-0.0860837	0.019561	1.17801	-0.335569	0	0	0.0352795	-0.134882	-0.291219	0	-0.428834	0	0	-0.0772238	0.104697	-0.0982622	-0.794844	0.326203	-0.857619	1.48623	1.41779	0	0	0.172712	-0.172881	0.495652	0.315079	1.5708	0	0
20.16	-2.20966	1.46387	0.486807	0.986681	-0.434442	0.921174	0.337749	-0.080793	0.0210203	1.16093	-0.326268	0	0	0.0274489	-0.134043	-0.294511	0	-0.425702	0	0	-0.0798229	0.106237	-0.0932263	-0.79715	0.325393	-0.848563	1.472	1.34589	0	0	0.175646	-0.169964	0.496381	0.310932	1.5708	0	0
20.17	-2.19535	1.46254	0.466831	0.987494	-0.438742	0.921703	0.345557	-0.0759119	0.0227963	1.1425	-0.316362	0	0	0.0191994	-0.133362	-0.298449	0	-0.421881	0	0	-0.08297	0.107566	-0.0876015	-0.800682	0.322285	-0.835232	1.45854	1.25585	0	0	0.178315	-0.167083	0.497078	0.307588	1.5708	0	0
20.18	-2.19819	1.46092	0.464615	0.988289	-0.442975	0.922003	0.354781	-0.0725622	0.022976	1.12261	-0.310132	0	0	0.0137429	-0.132313	-0.300473	0	-0.419608	0	0	-0.083689	0.108509	-0.0831424	-0.800669	0.322143	-0.826972	1.44316	1.20537	0	0	0.180093	-0.164358	0.496811	0.30479	1.5708	0	0
20.19	-2.04145	1.46822	0.3173	0.991228	-0.448854	0.923703	0.360423	-0.103534	-0.151802	1.13198	-0.347321	0	0	-0.0123494	-0.126803	-0.300045	0	-0.417371	0	0	-0.102803	0.110576	-0.0908509	-0.805851	0.317972	-0.81108	1.43497	1.11234	0	0	0.183217	-0.160408	0.497337	0.303482	1.5708	0	0
20.2	-2.05439	1.46612	0.326053	0.991913	-0.453043	0.923826	0.367762	-0.099379	-0.152812	1.10652	-0.336828	0	0	-0.0157425	-0.126657	-0.300457	0	-0.411428	0	0	-0.101914	0.111709	-0.086731	-0.807263	0.313779	-0.796247	1.42162	1.03456	0	0	0.184976	-0.157486	0.49761	0.30069	1.5708	0	0
20.21	-2.07385	1.46372	0.342541	0.99258	-0.457298	0.923833	0.374195	-0.0954137	-0.153966	1.07873	-0.324585	0	0	-0.0178782	-0.126496	-0.300575	0	-0.406094	0	0	-0.0995015	0.112912	-0.0842831	-0.803361	0.31152	-0.787282	1.40472	0.986571	0	0	0.185861	-0.155001	0.499875	0.298127	1.5708	0	0
20.22	-2.09023	1.46173	0.357034	0.993275	-0.461586	0.923774	0.378961	-0.0925909	-0.155461	1.05001	-0.313973	0	0	-0.0207538	-0.125831	-0.301428	0	-0.402105	0	0	-0.0968916	0.11391	-0.0828754	-0.7947	0.310552	-0.783066	1.38464	0.962238	0	0	0.185708	-0.152535	0.503018	0.295491	1.5708	0	0
20.23	-2.09832	1.46045	0.362814	0.993845	-0.465852	0.923739	0.382218	-0.0901474	-0.154915	1.02129	-0.303958	0	0	-0.0252415	-0.124739	-0.304085	0	-0.398242	0	0	-0.0950935	0.11459	-0.0800425	-0.782861	0.310126	-0.781839	1.36228	0.951091	0	0	0.185462	-0.149456	0.504437	0.292683	1.5708	0	0
20.24	-2.118	1.45974	0.38089	0.994251	-0.470282	0.923388	0.386219	-0.0896462	-0.154736	0.993915	-0.294857	0	0	-0.0289862	-0.122829	-0.306907	0	-0.394753	0	0	-0.090587	0.114407	-0.074405	-0.770681	0.312562	-0.784533	1.33957	0.952162	0	0	0.186123	-0.145573	0.497217	0.29338	1.5708	0	0
20.25	-2.09509	1.45814	0.356708	0.995105	-0.474321	0.923862	0.38339	-0.086206	-0.153763	0.959953	-0.286395	0	0	-0.0364136	-0.123207	-0.30972	0	-0.390842	0	0	-0.0935866	0.117173	-0.0776543	-0.750785	0.309905	-0.787232	1.31618	0.969584	0	0	0.183723	-0.144152	0.486353	0.297244	1.5708	0	0
20.26	-2.09634	1.45716	0.357194	0.995687	-0.478506	0.923851	0.383182	-0.0851743	-0.152502	0.928733	-0.27861	0	0	-0.0414923	-0.122408	-0.31212	0	-0.387001	0	0	-0.0921534	0.118258	-0.077062	-0.73229	0.312875	-0.797324	1.29456	0.990733	0	0	0.183071	-0.141773	0.486303	0.296997	1.5708	0	0
20.27	-2.10907	1.45666	0.36879	0.996102	-0.482756	0.923676	0.384167	-0.0854306	-0.150087	0.899026	-0.27201	0	0	-0.0454578	-0.120737	-0.314994	0	-0.383262	0	0	-0.0888718	0.118413	-0.0743462	-0.714201	0.31843	-0.812223	1.27425	1.01586	0	0	0.182999	-0.139368	0.489841	0.296979	1.5708	0	0
20.28	-2.13192	1.45665	0.390618	0.996406	-0.48699	0.923341	0.386141	-0.0868778	-0.14619	0.870215	-0.266069	0	0	-0.048153	-0.118271	-0.317536	0	-0.377472	0	0	-0.0841527	0.117513	-0.0681996	-0.69425	0.327734	-0.835829	1.25289	1.04812	0	0	0.185384	-0.136198	0.505318	0.292556	1.5708	0	0
20.29	-2.16837	1.45711	0.427771	0.996516	-0.491355	0.922605	0.38973	-0.0904526	-0.14297	0.844407	-0.261644	0	0	-0.0495647	-0.115056	-0.318348	0	-0.369982	0	0	-0.0767851	0.115677	-0.0579153	-0.676166	0.339014	-0.86261	1.2316	1.07353	0	0	0.188464	-0.131068	0.522392	0.285792	1.5708	0	0
20.3	-2.1775	1.45695	0.438445	0.996924	-0.495518	0.922308	0.389484	-0.0925134	-0.138987	0.816265	-0.260583	0	0	-0.0533207	-0.113488	-0.318866	0	-0.358871	0	0	-0.0735016	0.116126	-0.0542286	-0.654925	0.343363	-0.884826	1.20874	1.09121	0	0	0.187971	-0.127	0.517416	0.286959	1.5708	0	0
20.31	-2.19033	1.45608	0.452749	0.997354	-0.499582	0.921966	0.389481	-0.0935986	-0.130858	0.787436	-0.260619	0	0	-0.0560505	-0.112384	-0.320083	0	-0.34404	0	0	-0.0695424	0.11716	-0.0521399	-0.63377	0.342079	-0.900878	1.18321	1.09013	0	0	0.186552	-0.123799	0.50439	0.293079	1.5708	0	0
20.32	-2.22712	1.45431	0.489167	0.997427	-0.503504	0.921385	0.389851	-0.0928434	-0.101168	0.752647	-0.259893	0	0	-0.0556209	-0.110905	-0.321723	0	-0.318671	0	0	-0.0622287	0.117142	-0.0505683	-0.613189	0.334272	-0.90814	1.15282	1.06707	0	0	0.182585	-0.122615	0.49695	0.300296	1.5708	0	0
20.33	-2.24968	1.4507	0.516071	0.998168	-0.507131	0.9205	0.39128	-0.0946773	-0.0741281	0.726298	-0.256621	0	0	-0.0514079	-0.11251	-0.32168	0	-0.281808	0	0	-0.0555227	0.121131	-0.0559899	-0.597162	0.320065	-0.900571	1.12747	1.0223	0	0	0.176995	-0.122868	0.49508	0.31056	1.5708	0	0
20.34	-2.22766	1.44843	0.502085	0.998897	-0.511039	0.921241	0.376466	-0.0935793	-0.050813	0.67665	-0.27742	0	0	-0.057378	-0.114644	-0.314811	0	-0.330872	0	0	-0.0567877	0.114659	-0.0454969	-0.600553	-0.358462	0.332659	1.003	0	0	0	0.187386	-0.116881	0.508947	0.303268	1.5708	0	0
